<svg fill="none" xmlns="http://www.w3.org/2000/svg" viewBox="0 0 389 84">
    <g class="sl-logo-typography">
        <path d="M378 67c-6 0-9-3-9-9V36h-6v-9h6V16l10-5v16h9v9h-9v19c0 1 1 2 2 2h6l2 10h-11ZM324 67V16l10-5v20a13.9 13.9 0 0 1 11-5 15.1 15.1 0 0 1 10.22 4.27C357.92 32.7 359 36.49 359 42v25h-10V45c0-5.88-2.18-8.73-6.8-8.73-5.05 0-8.2 2.96-8.2 8.73v22h-10Z" fill="#2D3239"/>
        <path fill-rule="evenodd" clip-rule="evenodd" d="M302.71 72.15A6.07 6.07 0 0 0 306 67v-2c-2.03 2.03-5.3 3-9 3-4.94 0-8.74-1.54-11.76-5.13C282.22 59.23 281 53.71 281 47c0-6.34 1.22-11.04 4.24-14.78 3.07-3.8 6.82-6.22 11.76-6.22 3.54 0 6.87 1.97 9 4v-3h10v35c0 7.12-1.43 12.18-4.08 15.3-2.27 2.76-6.09 4.9-11.92 5.7-9.8 1.36-17-4-17-4l4-7c1 .5 3.5 1.61 7 2 4.5.5 6.8-.74 8.71-1.85ZM306 55c-1.56 2.13-3.93 4-7 4-2.6 0-4.76-1.51-6.12-3.54-1.35-2.03-1.88-5.08-1.88-8.46 0-3.59.53-5.97 1.88-7.84A7.49 7.49 0 0 1 299 36c2.8 0 5.18 1.82 7 4v15Z" fill="#2D3239"/>
        <path d="M264 67V27h10v40h-10Z" fill="#2D3239"/>
        <circle cx="269" cy="17" r="6" fill="#2D3239"/>
        <path d="M245 67V16l10-5v56h-10ZM214 67V27h10v7c0-3 5-7 11-7h5v10h-5c-6 0-11 4-11 8v22h-10ZM198 67v-3c-2.55 2.55-5.68 4-10 4s-8.19-.9-10.94-3.18c-2.7-2.29-4.06-5.54-4.06-9.75 0-4.32 1.53-7.6 4.6-9.83 3.12-2.23 7.25-3.35 11.61-3.35 3.49 0 6.19.86 8.79 2.11v-3c0-4.21-2.22-6-7-6-4.37 0-8.15 1.35-12 4l-3.3-8.32C180.33 27.56 185.76 26 192 26c2.13 0 4 .18 5.62.55 1.66.36 3.38 1.04 5.14 2.02a9.5 9.5 0 0 1 4.06 4.76c.99 2.13 1.18 5.33 1.18 8.56V67h-10Zm-8-7.64c3.16 0 5.6-1.18 8-3.36v-4a17.87 17.87 0 0 0-7.07-1.53c-2.29 0-4.14.39-5.54 1.17-1.4.73-2.39 1.87-2.39 3.43 0 1.3.86 2.34 2 3.12 1.2.78 2.86 1.17 5 1.17ZM159 67c-6 0-9-3-9-9V36h-6v-9h6V16l10-5v16h9v9h-9v19c0 1 1 2 2 2h5l3 10h-11ZM121 68c-5.1 0-9.52-1.33-13.26-3.98S101.56 57.68 100 53l10-3c1.2 2.6 1.9 4.1 3.98 5.66A11.4 11.4 0 0 0 121 58c2.7 0 4.84-.57 6.4-1.72 1.6-1.14 2.94-2.51 2.94-4.64 0-1.1-.26-2.06-.78-2.89a6.9 6.9 0 0 0-2.65-2.26 26.21 26.21 0 0 0-3.35-1.56c-.94-.42-2.37-.94-4.3-1.56-2.18-.73-3.84-1.3-4.99-1.72a38.64 38.64 0 0 1-4.36-2.1 16.66 16.66 0 0 1-4.14-2.97c-.93-1.04-1.8-2.39-2.57-4.05A13.66 13.66 0 0 1 102 27c0-4.26 1.15-7.77 4.47-10.63 3.33-2.91 7.83-4.37 13.5-4.37 4.68 0 8.6 1.17 11.78 3.51 3.22 2.34 5.75 4.99 7.25 8.49l-10 4c-1.72-3.85-4.48-6-9-6-2.29 0-4.08.47-5.38 1.4a4.02 4.02 0 0 0-1.9 3.59c0 1.1.51 2.08 1.55 2.96a13.9 13.9 0 0 0 3.2 1.95c1.1.42 2.81 1.02 5.15 1.8 1.82.62 3.22 1.12 4.21 1.48.99.36 2.34.94 4.06 1.72 1.71.78 3.04 1.58 3.98 2.41.98.84 2 1.85 3.04 3.05a9.87 9.87 0 0 1 2.34 4.13c.47 1.56.75 3.64.75 5.51 0 5.15-2.14 8.59-5.88 11.55-3.7 2.97-8.4 4.45-14.12 4.45Z" fill="#2D3239"/>
    </g>
    <path d="M13 40c0 11.58-5.28 22.54-13 30l10 10c10.25-9.99 17-24.56 17-40 0-5.2-.77-10.31-2.18-15.18A57.16 57.16 0 0 1 1 11C8.16 18.4 13 28.93 13 40Z" fill="url(#a)"/>
    <path d="M67 40c0-11.58 5.28-22.54 13-30L70 0C59.75 9.99 53 24.56 53 40c0 5.2.77 10.31 2.18 15.18A57.17 57.17 0 0 1 79 69C71.84 61.6 67 51.07 67 40Z" fill="url(#b)"/>
    <path d="M40 13C28.42 13 17.46 7.72 10 0L0 10c9.99 10.25 24.56 17 40 17 5.2 0 10.31-.77 15.18-2.18A57.16 57.16 0 0 1 69 1C61.6 8.16 51.07 13 40 13Z" fill="url(#c)"/>
    <path d="M40 67c11.58 0 22.54 5.28 30 13l10-10c-9.99-10.25-24.56-17-40-17-5.2 0-10.31.77-15.18 2.18A57.16 57.16 0 0 1 11 79C18.4 71.84 28.93 67 40 67Z" fill="url(#d)"/>
    <defs>
        <linearGradient id="a" x1="13.5" y1="10" x2="13.5" y2="80" gradientUnits="userSpaceOnUse">
            <stop stop-color="#F07319" stop-opacity=".35"/>
            <stop offset=".5" stop-color="#F07319"/>
        </linearGradient>
        <linearGradient id="b" x1="66.5" y1="70" x2="66.5" y2="0" gradientUnits="userSpaceOnUse">
            <stop stop-color="#F07319" stop-opacity=".35"/>
            <stop offset=".5" stop-color="#F07319"/>
        </linearGradient>
        <linearGradient id="c" x1="70" y1="13.5" x2="0" y2="13.5" gradientUnits="userSpaceOnUse">
            <stop stop-color="#F07319" stop-opacity=".35"/>
            <stop offset=".5" stop-color="#F07319"/>
        </linearGradient>
        <linearGradient id="d" x1="10" y1="66.5" x2="80" y2="66.5" gradientUnits="userSpaceOnUse">
            <stop stop-color="#F07319" stop-opacity=".35"/>
            <stop offset=".5" stop-color="#F07319"/>
        </linearGradient>
    </defs>
</svg>
