<svg fill="none" xmlns="http://www.w3.org/2000/svg" viewBox="0 0 800 250"><path d="M359.25 143.43c-4.33 0-6.5-2.17-6.5-6.5v-15.9h-4.34v-6.51h4.34v-7.95l7.23-3.62v11.57h6.5v6.5h-6.5v13.74c0 .72.72 1.45 1.44 1.45h4.34l1.44 7.22h-7.95ZM320.22 143.43v-36.86l7.23-3.62v14.46a10.05 10.05 0 0 1 7.95-3.61c2.86 0 5.47 1.28 7.39 3.08 1.95 1.77 2.73 4.5 2.73 8.48v18.07h-7.23v-15.9c0-4.25-1.58-6.3-4.92-6.3-3.65 0-5.92 2.13-5.92 6.3v15.9h-7.23Z" fill="#F9FAFB"/><path fill-rule="evenodd" clip-rule="evenodd" d="M304.83 147.16a4.39 4.39 0 0 0 2.38-3.73V142c-1.47 1.46-3.84 2.17-6.51 2.17-3.57 0-6.32-1.12-8.5-3.71-2.18-2.63-3.07-6.63-3.07-11.47 0-4.59.89-7.98 3.07-10.7 2.22-2.73 4.93-4.48 8.5-4.48 2.56 0 4.96 1.42 6.5 2.89v-2.17h7.23v25.3c0 5.15-1.03 8.8-2.95 11.06-1.63 2-4.4 3.54-8.61 4.12-7.1.98-12.3-2.9-12.3-2.9l2.9-5.05c.72.36 2.53 1.16 5.06 1.44a9.05 9.05 0 0 0 6.3-1.33Zm2.38-12.4c-1.13 1.54-2.85 2.9-5.06 2.9a5.38 5.38 0 0 1-4.43-2.57c-.97-1.46-1.36-3.67-1.36-6.11 0-2.6.39-4.32 1.36-5.67a5.41 5.41 0 0 1 4.42-2.29c2.03 0 3.75 1.32 5.06 2.9v10.84Z" fill="#F9FAFB"/><path d="M276.84 143.43v-28.91h7.23v28.91h-7.23Z" fill="#F9FAFB"/><circle cx="280.46" cy="107.29" fill="#F9FAFB" r="4.34"/><path d="M263.1 143.43v-36.86l7.24-3.62v40.48h-7.23ZM240.7 143.43v-28.91h7.23v5.06c0-2.17 3.61-5.06 7.95-5.06h3.61v7.23h-3.61c-4.34 0-7.95 2.89-7.95 5.78v15.9h-7.23ZM229.13 143.43v-2.17a9.64 9.64 0 0 1-7.23 2.9c-3.12 0-5.91-.65-7.9-2.3-1.96-1.66-2.94-4-2.94-7.05 0-3.12 1.1-5.49 3.33-7.1 2.25-1.62 5.23-2.43 8.39-2.43 2.52 0 4.47.63 6.35 1.53v-2.17c0-3.05-1.6-4.34-5.06-4.34-3.16 0-5.9.98-8.67 2.9l-2.39-6.02a20.58 20.58 0 0 1 11.78-3.39c1.55 0 2.9.14 4.06.4 1.2.26 2.45.75 3.73 1.47a6.86 6.86 0 0 1 2.93 3.44c.71 1.54.85 3.85.85 6.18v18.15h-7.23Zm-5.79-5.52c2.3 0 4.06-.85 5.8-2.43v-2.89a12.92 12.92 0 0 0-5.12-1.1c-1.65 0-2.99.27-4 .84-1.02.52-1.73 1.35-1.73 2.48 0 .94.62 1.7 1.45 2.25.86.57 2.06.85 3.6.85ZM200.94 143.43c-4.34 0-6.5-2.17-6.5-6.5v-15.9h-4.34v-6.51h4.33v-7.95l7.23-3.62v11.57h6.5v6.5h-6.5v13.74c0 .72.73 1.45 1.45 1.45h3.61l2.17 7.22h-7.95ZM173.47 144.16c-3.68 0-6.88-.96-9.59-2.88-2.7-1.92-4.46-4.58-5.6-7.97l7.24-2.16c.86 1.87 1.37 2.96 2.88 4.09a8.25 8.25 0 0 0 5.07 1.69c1.96 0 3.5-.42 4.62-1.24 1.17-.83 2.13-1.82 2.13-3.36 0-.8-.19-1.49-.56-2.09a5 5 0 0 0-1.92-1.63 34.32 34.32 0 0 0-5.53-2.25 150.4 150.4 0 0 1-3.6-1.25c-.8-.3-1.84-.8-3.16-1.52a12 12 0 0 1-2.99-2.14c-.68-.76-1.3-1.73-1.86-2.94a9.88 9.88 0 0 1-.86-4c0-3.07.82-5.61 3.23-7.68 2.4-2.1 5.66-3.16 9.75-3.16 3.39 0 6.22.85 8.52 2.54 2.33 1.7 4.16 3.6 5.24 6.14l-7.23 2.9c-1.24-2.8-3.23-4.35-6.5-4.35-1.66 0-2.95.34-3.9 1.02a2.9 2.9 0 0 0-1.37 2.6c0 .78.38 1.5 1.13 2.13.75.6 1.52 1.07 2.31 1.41.79.3 2.03.74 3.72 1.3a46.14 46.14 0 0 1 5.98 2.31c1.24.57 2.2 1.15 2.87 1.75.72.6 1.45 1.33 2.2 2.2a7.13 7.13 0 0 1 1.7 2.99c.33 1.13.54 2.63.54 3.98 0 3.72-1.55 6.21-4.25 8.35-2.67 2.15-6.08 3.22-10.21 3.22Z" fill="#F9FAFB"/><path d="M95.4 123.92c0 8.36-3.82 16.3-9.4 21.68l7.23 7.23a40.92 40.92 0 0 0 12.29-28.91c0-3.77-.56-7.46-1.58-10.98a41.33 41.33 0 0 1-17.23-10c5.2 5.37 8.69 12.97 8.69 20.98Z" fill="url(#a)"/><path d="M134.43 123.92c0-8.37 3.82-16.3 9.4-21.7L136.6 95a40.92 40.92 0 0 0-12.29 28.92c0 3.76.56 7.45 1.58 10.97a41.32 41.32 0 0 1 17.23 10c-5.19-5.36-8.69-12.97-8.69-20.97Z" fill="url(#b)"/><path d="M114.92 104.4c-8.37 0-16.3-3.82-21.7-9.4L86 102.23a40.92 40.92 0 0 0 28.92 12.29c3.76 0 7.45-.56 10.97-1.58a41.33 41.33 0 0 1 10-17.23c-5.36 5.2-12.97 8.69-20.97 8.69Z" fill="url(#c)"/><path d="M114.92 143.43c8.36 0 16.3 3.82 21.68 9.4l7.23-7.23a40.92 40.92 0 0 0-28.91-12.29c-3.77 0-7.46.56-10.98 1.58a41.32 41.32 0 0 1-10 17.23c5.37-5.19 12.97-8.69 20.98-8.69Z" fill="url(#d)"/><path d="M458.28 138.43c-1.8 0-3.5-.54-5.1-1.64a10.6 10.6 0 0 1-3.69-4.51l5-2.27c.51.9 1.06 1.61 1.66 2.14a3.2 3.2 0 0 0 2.13.77c.4 0 .8-.06 1.17-.18.37-.13.7-.35.99-.66.3-.31.53-.75.7-1.3.18-.56.27-1.28.27-2.14V112.8h5.72v16.24c0 1.82-.27 3.34-.8 4.55a7.5 7.5 0 0 1-2.15 2.88 8.13 8.13 0 0 1-2.86 1.51c-1.03.3-2.05.45-3.04.45Zm18.59 0c-2.03 0-3.64-.53-4.83-1.6a5.6 5.6 0 0 1-1.76-4.34c0-1.19.31-2.23.94-3.13.63-.9 1.5-1.6 2.62-2.09a9.54 9.54 0 0 1 3.93-.75c.74 0 1.47.06 2.2.18.73.1 1.33.26 1.8.46v-1.04c0-.78-.28-1.38-.82-1.8a3.47 3.47 0 0 0-2.25-.65c-.9 0-1.84.16-2.8.49-.95.32-1.96.82-3.03 1.5l-1.65-4.15a14.84 14.84 0 0 1 8-2.34c2.64 0 4.62.6 5.93 1.82 1.32 1.2 1.98 3 1.98 5.42V138h-5.37v-1.33a5.31 5.31 0 0 1-2.08 1.31 8.2 8.2 0 0 1-2.81.45Zm1.4-4.5a5.16 5.16 0 0 0 3.5-1.22v-1.51a7.4 7.4 0 0 0-1.46-.38c-.53-.09-1.08-.13-1.64-.13-.97 0-1.74.16-2.29.47-.54.3-.8.73-.8 1.3 0 .46.23.83.7 1.1.46.25 1.13.37 2 .37Zm17.55 4.07-6.73-18.4h5.65l3.53 10.05c.1.24.18.51.27.83l.23.9a32.57 32.57 0 0 1 .5-1.73l3.53-10.05h5.65l-6.73 18.4h-5.9Zm19.92.43c-2.02 0-3.63-.53-4.82-1.6a5.6 5.6 0 0 1-1.76-4.34c0-1.19.3-2.23.93-3.13.64-.9 1.51-1.6 2.63-2.09a9.54 9.54 0 0 1 3.92-.75c.75 0 1.48.06 2.2.18.73.1 1.33.26 1.8.46v-1.04c0-.78-.27-1.38-.81-1.8a3.47 3.47 0 0 0-2.25-.65c-.91 0-1.85.16-2.8.49-.96.32-1.96.82-3.03 1.5l-1.66-4.15a14.84 14.84 0 0 1 8-2.34c2.65 0 4.63.6 5.93 1.82 1.32 1.2 1.98 3 1.98 5.42V138h-5.36v-1.33a5.31 5.31 0 0 1-2.09 1.31 8.2 8.2 0 0 1-2.8.45Zm1.4-4.5a5.16 5.16 0 0 0 3.5-1.22v-1.51a7.4 7.4 0 0 0-1.46-.38c-.53-.09-1.07-.13-1.64-.13-.97 0-1.73.16-2.28.47-.54.3-.81.73-.81 1.3 0 .46.23.83.7 1.1.47.25 1.13.37 2 .37Zm21.72 4.5a11 11 0 0 1-4.5-.9 10.1 10.1 0 0 1-3.5-2.57 11.72 11.72 0 0 1-2.22-4.05l5.07-1.91a8.47 8.47 0 0 0 2.24 2.93 4.72 4.72 0 0 0 3.05 1.14c1.12 0 2.01-.2 2.69-.61a2.03 2.03 0 0 0 1.02-1.84c0-.53-.2-.97-.6-1.31a5.07 5.07 0 0 0-1.63-.92c-.7-.28-1.51-.57-2.45-.87-.94-.3-1.91-.65-2.9-1.02-.98-.37-1.88-.84-2.71-1.4a6.7 6.7 0 0 1-1.98-2.2c-.5-.89-.76-2-.76-3.33 0-1.31.35-2.51 1.05-3.6.7-1.1 1.7-1.96 3.02-2.61 1.33-.66 2.94-1 4.82-1 1.56 0 2.95.3 4.16.87a8.55 8.55 0 0 1 4.7 5.58l-5.04 1.66a5.44 5.44 0 0 0-1.48-1.95 3.9 3.9 0 0 0-2.63-.79c-.94 0-1.67.17-2.2.5-.5.33-.75.81-.75 1.45 0 .38.18.72.52 1 .35.28.84.54 1.46.78.63.24 1.36.5 2.2.77 1.07.35 2.12.73 3.17 1.15 1.05.42 2 .94 2.86 1.55a6.75 6.75 0 0 1 2.05 2.3c.52.93.77 2.07.77 3.43 0 1.64-.42 3.04-1.27 4.2a8 8 0 0 1-3.42 2.65c-1.43.62-3.03.92-4.8.92Zm19.96 0a8.77 8.77 0 0 1-4.6-1.17 7.8 7.8 0 0 1-3.01-3.33 11.47 11.47 0 0 1-1.07-5.11c0-1.96.36-3.65 1.07-5.1a8 8 0 0 1 3.02-3.36 8.69 8.69 0 0 1 4.6-1.19c2.1 0 3.84.5 5.21 1.48a8.2 8.2 0 0 1 2.99 4.39l-5.15 1.7a3.96 3.96 0 0 0-1.2-1.75 2.83 2.83 0 0 0-4.14.63 5.3 5.3 0 0 0-.92 3.2c0 1.3.3 2.36.9 3.19.6.82 1.37 1.24 2.3 1.24a2.8 2.8 0 0 0 1.85-.65c.52-.44.92-1.1 1.21-1.98l5.15 1.48c-.61 2.12-1.6 3.71-2.97 4.77a8.39 8.39 0 0 1-5.24 1.56Zm11.5-.43v-18.4h5.4v1.7c.28-.57.77-1.06 1.48-1.48.7-.43 1.4-.65 2.05-.65 1.43 0 2.63.54 3.6 1.62l-.72 4.9a5.27 5.27 0 0 0-1.58-1.03c-.5-.2-1.04-.3-1.66-.3-.68 0-1.26.14-1.73.43-.46.29-.82.71-1.07 1.28a5.29 5.29 0 0 0-.37 2.07V138h-5.4Zm14.61 0v-18.4h5.4V138h-5.4Zm2.7-20.02c-.84 0-1.57-.3-2.18-.91a2.98 2.98 0 0 1-.92-2.18c0-.83.3-1.54.9-2.13.6-.6 1.34-.9 2.2-.9a3 3 0 0 1 3.1 3.03c0 .86-.3 1.6-.9 2.2-.6.6-1.34.9-2.2.9Zm7.23 27.33v-25.7h5.4v1.22c.8-1.1 2-1.66 3.6-1.66 1.58 0 2.94.4 4.08 1.17a7.32 7.32 0 0 1 2.63 3.31c.61 1.44.92 3.17.92 5.17 0 1.9-.33 3.58-.97 5.02a8.06 8.06 0 0 1-2.72 3.39 6.84 6.84 0 0 1-4.01 1.2c-.77 0-1.46-.14-2.06-.41a3.8 3.8 0 0 1-1.47-1.17v6.05l-5.4 2.4Zm8.06-12.1c1 0 1.79-.38 2.34-1.15.55-.78.83-1.86.83-3.24 0-1.44-.27-2.54-.81-3.3a2.72 2.72 0 0 0-2.36-1.13 3.3 3.3 0 0 0-2.66 1v6.74c.1.3.41.56.91.78.52.2 1.1.3 1.75.3Zm17.36 5.22c-1.6 0-2.79-.42-3.57-1.26-.76-.84-1.15-2.11-1.15-3.81v-9h-2.48v-4.76h2.48v-5.04l5.37-2.55v7.6h3.92v4.75h-3.92v8.35c0 .36.09.63.27.83.19.19.48.28.86.28a7.7 7.7 0 0 0 3.04-.72l-.61 4.5c-.58.27-1.21.47-1.9.62-.7.14-1.46.21-2.31.21Zm25.24 0a11 11 0 0 1-4.5-.9 10.1 10.1 0 0 1-3.5-2.57 11.72 11.72 0 0 1-2.23-4.05l5.08-1.91a8.47 8.47 0 0 0 2.23 2.93 4.72 4.72 0 0 0 3.06 1.14c1.12 0 2.01-.2 2.68-.61a2.03 2.03 0 0 0 1.03-1.84c0-.53-.2-.97-.6-1.31a5.07 5.07 0 0 0-1.63-.92c-.7-.28-1.51-.57-2.45-.87-.95-.3-1.91-.65-2.9-1.02-.98-.37-1.89-.84-2.72-1.4a6.7 6.7 0 0 1-1.98-2.2c-.5-.89-.75-2-.75-3.33 0-1.31.35-2.51 1.04-3.6.7-1.1 1.7-1.96 3.03-2.61 1.33-.66 2.94-1 4.82-1 1.56 0 2.95.3 4.16.87a8.55 8.55 0 0 1 4.7 5.58l-5.04 1.66a5.44 5.44 0 0 0-1.48-1.95 3.9 3.9 0 0 0-2.63-.79c-.95 0-1.68.17-2.2.5-.5.33-.75.81-.75 1.45 0 .38.17.72.52 1s.84.54 1.46.78 1.36.5 2.2.77c1.06.35 2.12.73 3.16 1.15 1.06.42 2.01.94 2.87 1.55a6.75 6.75 0 0 1 2.05 2.3c.51.93.77 2.07.77 3.43 0 1.64-.42 3.04-1.28 4.2a8 8 0 0 1-3.42 2.65c-1.42.62-3.03.92-4.8.92Zm12.74-.43v-25.2h9.58c2.2 0 4.1.35 5.65 1.06a10.3 10.3 0 0 1 3.82 2.88c.98 1.2 1.7 2.55 2.16 4.05a15.07 15.07 0 0 1 .02 8.96 12.16 12.16 0 0 1-2.11 4.1 10.45 10.45 0 0 1-3.84 3.02 13.52 13.52 0 0 1-5.84 1.13h-9.44Zm5.7-5.44h4.27c1.1 0 2.02-.2 2.78-.63a5.3 5.3 0 0 0 1.85-1.7c.48-.71.83-1.49 1.04-2.33a9.52 9.52 0 0 0-1-7.4 4.85 4.85 0 0 0-4.27-2.3h-4.68v14.36Zm19.52 5.44v-25.2h5.7v11.88l9.39-11.88h6.84l-7.56 9.18L706.7 138h-6.66L694 126.77l-4.83 6.05V138h-5.69Z" fill="#F3F4F6"/><rect x="407.2" y="80" width="2" height="90" rx="1" fill="#67717E"/><defs><linearGradient id="a" x1="95.76" y1="102.23" x2="95.76" y2="152.83" gradientUnits="userSpaceOnUse"><stop stop-color="#F07319" stop-opacity=".35"/><stop offset=".5" stop-color="#F07319"/></linearGradient><linearGradient id="b" x1="134.07" y1="145.6" x2="134.07" y2="95" gradientUnits="userSpaceOnUse"><stop stop-color="#F07319" stop-opacity=".35"/><stop offset=".5" stop-color="#F07319"/></linearGradient><linearGradient id="c" x1="136.6" y1="104.76" x2="86" y2="104.76" gradientUnits="userSpaceOnUse"><stop stop-color="#F07319" stop-opacity=".35"/><stop offset=".5" stop-color="#F07319"/></linearGradient><linearGradient id="d" x1="93.23" y1="143.07" x2="143.83" y2="143.07" gradientUnits="userSpaceOnUse"><stop stop-color="#F07319" stop-opacity=".35"/><stop offset=".5" stop-color="#F07319"/></linearGradient></defs></svg>
